<svg width="275" height="128" viewBox="0 0 275 128" fill="none" xmlns="http://www.w3.org/2000/svg">
<path d="M122.11 66.972C122.422 66.972 122.662 67.116 122.83 67.404C123.022 67.692 123.118 68.088 123.118 68.592C123.118 69.552 122.89 70.296 122.434 70.824C121.402 72.096 120.274 73.14 119.05 73.956C117.85 74.772 116.482 75.18 114.946 75.18C112.834 75.18 111.262 74.22 110.23 72.3C109.222 70.38 108.718 67.896 108.718 64.848C108.718 61.92 109.09 58.584 109.834 54.84C110.602 51.096 111.718 47.88 113.182 45.192C114.67 42.504 116.434 41.16 118.474 41.16C119.626 41.16 120.526 41.7 121.174 42.78C121.846 43.836 122.182 45.36 122.182 47.352C122.182 50.208 121.39 53.52 119.806 57.288C118.222 61.056 116.074 64.788 113.362 68.484C113.53 69.468 113.806 70.176 114.19 70.608C114.574 71.016 115.078 71.22 115.702 71.22C116.686 71.22 117.55 70.944 118.294 70.392C119.038 69.816 119.986 68.844 121.138 67.476C121.426 67.14 121.75 66.972 122.11 66.972ZM117.682 44.724C117.13 44.724 116.506 45.72 115.81 47.712C115.114 49.704 114.502 52.176 113.974 55.128C113.446 58.08 113.158 60.912 113.11 63.624C114.814 60.816 116.17 58.008 117.178 55.2C118.186 52.368 118.69 49.788 118.69 47.46C118.69 45.636 118.354 44.724 117.682 44.724ZM138.568 63.948C138.88 63.948 139.12 64.104 139.288 64.416C139.456 64.728 139.54 65.124 139.54 65.604C139.54 66.756 139.192 67.44 138.496 67.656C137.056 68.16 135.472 68.448 133.744 68.52C133.288 70.536 132.388 72.156 131.044 73.38C129.7 74.58 128.176 75.18 126.472 75.18C125.032 75.18 123.796 74.832 122.764 74.136C121.756 73.44 120.988 72.516 120.46 71.364C119.932 70.212 119.668 68.964 119.668 67.62C119.668 65.796 120.016 64.176 120.712 62.76C121.408 61.32 122.368 60.204 123.592 59.412C124.816 58.596 126.172 58.188 127.66 58.188C129.484 58.188 130.948 58.824 132.052 60.096C133.18 61.344 133.84 62.892 134.032 64.74C135.16 64.668 136.504 64.428 138.064 64.02C138.256 63.972 138.424 63.948 138.568 63.948ZM126.76 71.364C127.528 71.364 128.188 71.052 128.74 70.428C129.316 69.804 129.7 68.904 129.892 67.728C129.148 67.224 128.572 66.564 128.164 65.748C127.78 64.932 127.588 64.068 127.588 63.156C127.588 62.772 127.624 62.388 127.696 62.004H127.516C126.556 62.004 125.752 62.472 125.104 63.408C124.48 64.32 124.168 65.616 124.168 67.296C124.168 68.616 124.42 69.624 124.924 70.32C125.452 71.016 126.064 71.364 126.76 71.364ZM154.883 67.044C155.195 67.044 155.435 67.2 155.603 67.512C155.795 67.8 155.891 68.172 155.891 68.628C155.891 69.18 155.807 69.612 155.639 69.924C155.471 70.236 155.207 70.512 154.847 70.752C152.783 72.144 151.271 73.176 150.311 73.848L148.007 75.396C147.095 80.364 145.895 84.264 144.407 87.096C142.943 89.952 141.071 91.38 138.791 91.38C137.567 91.38 136.571 90.996 135.803 90.228C135.035 89.484 134.651 88.5 134.651 87.276C134.651 85.572 135.323 83.736 136.667 81.768C138.011 79.824 140.531 77.424 144.227 74.568L144.443 73.164C144.035 73.812 143.495 74.316 142.823 74.676C142.175 75.012 141.527 75.18 140.879 75.18C139.391 75.18 138.203 74.64 137.315 73.56C136.427 72.48 135.983 71.064 135.983 69.312C135.983 67.392 136.427 65.58 137.315 63.876C138.203 62.148 139.379 60.768 140.843 59.736C142.331 58.68 143.903 58.152 145.559 58.152C146.087 58.152 146.435 58.26 146.603 58.476C146.795 58.668 146.951 59.028 147.071 59.556C147.527 59.46 148.055 59.412 148.655 59.412C149.255 59.412 149.675 59.508 149.915 59.7C150.179 59.868 150.311 60.216 150.311 60.744C150.311 61.032 150.299 61.26 150.275 61.428C150.179 62.172 149.879 64.056 149.375 67.08C149.279 67.656 149.171 68.292 149.051 68.988C148.955 69.66 148.847 70.38 148.727 71.148C150.575 69.708 152.351 68.436 154.055 67.332C154.367 67.14 154.643 67.044 154.883 67.044ZM142.175 71.544C142.727 71.544 143.255 71.208 143.759 70.536C144.263 69.864 144.623 68.904 144.839 67.656L145.991 61.5C145.007 61.524 144.095 61.908 143.255 62.652C142.415 63.372 141.743 64.332 141.239 65.532C140.735 66.732 140.483 68.004 140.483 69.348C140.483 70.092 140.627 70.644 140.915 71.004C141.227 71.364 141.647 71.544 142.175 71.544ZM139.187 87.888C139.787 87.888 140.459 87.168 141.203 85.728C141.971 84.288 142.703 81.996 143.399 78.852C141.551 80.436 140.219 81.864 139.403 83.136C138.587 84.408 138.179 85.524 138.179 86.484C138.179 86.892 138.251 87.228 138.395 87.492C138.563 87.756 138.827 87.888 139.187 87.888ZM159.761 75.18C158.345 75.18 157.133 74.832 156.125 74.136C155.141 73.416 154.397 72.48 153.893 71.328C153.389 70.176 153.137 68.94 153.137 67.62C153.137 65.796 153.473 64.176 154.145 62.76C154.841 61.32 155.777 60.204 156.953 59.412C158.129 58.596 159.449 58.188 160.913 58.188C162.329 58.188 163.541 58.548 164.549 59.268C165.557 59.964 166.313 60.888 166.817 62.04C167.321 63.192 167.573 64.428 167.573 65.748C167.573 67.572 167.225 69.204 166.529 70.644C165.833 72.06 164.885 73.176 163.685 73.992C162.509 74.784 161.201 75.18 159.761 75.18ZM160.157 71.292C160.973 71.292 161.657 70.848 162.209 69.96C162.785 69.072 163.073 67.776 163.073 66.072C163.073 64.752 162.833 63.756 162.353 63.084C161.873 62.412 161.297 62.076 160.625 62.076C159.761 62.076 159.041 62.52 158.465 63.408C157.913 64.272 157.637 65.568 157.637 67.296C157.637 68.664 157.877 69.672 158.357 70.32C158.837 70.968 159.437 71.292 160.157 71.292Z" fill="#D2691E"/>
<g filter="url(#filter0_f_6_659)">
<path d="M90.7344 64C90.7344 41.9086 108.643 24 130.734 24H144.266C166.357 24 184.266 41.9086 184.266 64C184.266 86.0914 166.357 104 144.266 104H130.734C108.643 104 90.7344 86.0914 90.7344 64Z" fill="#E7353B" fill-opacity="0.05"/>
</g>
<path d="M105.5 90C105.5 88.8954 106.395 88 107.5 88H167.5C168.605 88 169.5 88.8954 169.5 90C169.5 91.1046 168.605 92 167.5 92H107.5C106.395 92 105.5 91.1046 105.5 90Z" fill="#D2691E"/>
<defs>
<filter id="filter0_f_6_659" x="66.7344" y="0" width="141.531" height="128" filterUnits="userSpaceOnUse" color-interpolation-filters="sRGB">
<feFlood flood-opacity="0" result="BackgroundImageFix"/>
<feBlend mode="normal" in="SourceGraphic" in2="BackgroundImageFix" result="shape"/>
<feGaussianBlur stdDeviation="12" result="effect1_foregroundBlur_6_659"/>
</filter>
</defs>
</svg>
